<?xml version="1.0" encoding="utf-8"?>
<!-- Generator: Adobe Illustrator 25.2.1, SVG Export Plug-In . SVG Version: 6.00 Build 0)  -->
<svg version="1.1" xmlns="http://www.w3.org/2000/svg" xmlns:xlink="http://www.w3.org/1999/xlink" x="0px" y="0px"
	 viewBox="0 0 500 500" style="enable-background:new 0 0 500 500;" xml:space="preserve">
<style type="text/css">
	.st0{display:none;}
	.st1{display:inline;fill:#EAF2E6;}
	.st2{fill:#381C0E;}
	.st3{fill:#572C20;}
	.st4{fill:#0D6829;}
	.st5{fill:#EFC1A1;}
	.st6{fill:#8E8E8E;}
	.st7{fill:#767675;}
	.st8{fill:#3B3C3A;}
	.st9{fill:#8D8D8C;}
	.st10{fill:none;stroke:#36423B;stroke-width:2.5294;stroke-miterlimit:10;}
	.st11{fill:#36423B;}
	.st12{fill:none;stroke:#36423B;stroke-width:3.6707;stroke-miterlimit:10;}
	.st13{fill:#E21823;}
	.st14{fill:#0D8A37;}
	.st15{fill:#E1A484;}
	.st16{fill:#C37528;}
	.st17{fill:#F2E60F;}
	.st18{fill:url(#SVGID_1_);}
	.st19{fill:url(#SVGID_2_);}
	.st20{fill:url(#SVGID_3_);}
	.st21{fill:none;stroke:#452F20;stroke-width:1.0879;stroke-miterlimit:10;}
	.st22{fill:#946053;}
	.st23{fill:none;stroke:#D8E4EE;stroke-width:1.4421;stroke-miterlimit:10;}
	.st24{fill:#D8E4EE;}
	.st25{fill:#A4C0D4;}
	.st26{fill:url(#SVGID_4_);}
	.st27{stroke:#000000;stroke-width:0.0345;stroke-miterlimit:10;}
	.st28{fill:none;stroke:#000000;stroke-width:0.1036;stroke-miterlimit:10;}
	.st29{stroke:#000000;stroke-width:0.1036;stroke-miterlimit:10;}
	.st30{fill:#FFFFFF;}
	.st31{fill:none;stroke:#FFFFFF;stroke-width:0.1036;stroke-miterlimit:10;}
	.st32{fill:#FFFFFF;stroke:#FFFFFF;stroke-width:0.1036;stroke-miterlimit:10;}
	.st33{fill:#EDE439;}
	.st34{fill:#4F8840;}
	.st35{font-family:'FranklinGothic-Demi';}
	.st36{font-size:5.0564px;}
</style>
<g id="BACKGROUND" class="st0">
	<rect class="st1" width="500" height="500"/>
</g>
<g id="OBJECTS">
	<g>
		<g>
			<rect x="205.67" y="442.91" class="st2" width="53.5" height="2.47"/>
			<path class="st3" d="M211.3,424.6c-0.77,0-3.82,1.59-4.39,4.06c-0.57,2.47-2.37,12.07-0.72,15.16c5.71,0,52.99,0,52.99,0
				s0.67-8.64-3.09-9.78c-3.76-1.13-27.17-7.41-27.17-7.41s-5.65,5.7-13.17,4.22C209.65,429.65,211.3,424.6,211.3,424.6z"/>
			<path class="st4" d="M208.34,268.18c0,0,21.7,57.75,23.27,63.05c2.27,7.64-14.78,19.5-20.49,8.92
				c-3.58-6.62-45.21-77.68-45.21-77.68L208.34,268.18z"/>
			<path class="st5" d="M211.16,420.26c0,0-0.33,3.68-1.13,7.17c-0.69,3.02,3.73,6.04,10.42,5.19c9.05-1.15,8.66-5,8.66-5
				l-0.45-7.36H211.16z"/>
			<path class="st4" d="M210.7,420.61l19.01,0.67c0,0,5.05-79.31,1.91-90.04c-8.49-2.93-20.64-2.26-20.64-2.26L210.7,420.61z"/>
		</g>
		<g>
			<g>
				<g>
					<rect x="385.59" y="331.61" class="st6" width="1.2" height="135.91"/>
					
						<rect x="385.59" y="331.61" transform="matrix(-1.836970e-16 1 -1 -1.836970e-16 785.7498 13.3717)" class="st6" width="1.2" height="135.91"/>
					
						<rect x="385.59" y="331.61" transform="matrix(0.707 0.7072 -0.7072 0.707 395.7326 -156.0467)" class="st6" width="1.2" height="135.91"/>
					
						<rect x="385.59" y="331.61" transform="matrix(-0.7071 0.7071 -0.7071 -0.7071 941.798 409.016)" class="st6" width="1.2" height="135.91"/>
				</g>
				<g>
					
						<rect x="385.59" y="331.61" transform="matrix(0.9311 0.3648 -0.3648 0.9311 172.3678 -113.3439)" class="st6" width="1.2" height="135.91"/>
					
						<rect x="385.59" y="331.61" transform="matrix(-0.3649 0.9311 -0.9311 -0.3649 899.1161 185.7932)" class="st6" width="1.2" height="135.91"/>
					
						<rect x="385.59" y="331.61" transform="matrix(0.4004 0.9164 -0.9164 0.4004 597.7092 -114.2972)" class="st6" width="1.2" height="135.91"/>
					
						<rect x="385.59" y="331.61" transform="matrix(-0.9164 0.4003 -0.4003 -0.9164 900.0374 611.1041)" class="st6" width="1.2" height="135.91"/>
				</g>
				<circle class="st6" cx="386.19" cy="399.56" r="17.17"/>
				<path class="st7" d="M386.19,483.09c-46.06,0-83.53-37.47-83.53-83.53c0-46.06,37.47-83.53,83.53-83.53
					c46.06,0,83.53,37.47,83.53,83.53C469.72,445.62,432.25,483.09,386.19,483.09z M386.19,330.11c-38.3,0-69.45,31.16-69.45,69.45
					c0,38.3,31.16,69.45,69.45,69.45c38.3,0,69.45-31.16,69.45-69.45C455.64,361.26,424.49,330.11,386.19,330.11z"/>
				<path class="st8" d="M386.19,469.57c-38.6,0-70.01-31.41-70.01-70.01c0-38.6,31.41-70.01,70.01-70.01
					c38.6,0,70.01,31.41,70.01,70.01C456.2,438.16,424.79,469.57,386.19,469.57z M386.19,335.02c-35.59,0-64.54,28.95-64.54,64.54
					c0,35.59,28.95,64.54,64.54,64.54c35.59,0,64.54-28.95,64.54-64.54C450.73,363.98,421.77,335.02,386.19,335.02z"/>
				<g>
					<circle class="st8" cx="386.19" cy="399.56" r="8.79"/>
					<path class="st7" d="M390.71,399.56c0,2.49-2.02,4.52-4.52,4.52c-2.49,0-4.52-2.02-4.52-4.52c0-2.49,2.02-4.52,4.52-4.52
						C388.68,395.04,390.71,397.07,390.71,399.56z"/>
				</g>
			</g>
			
				<rect x="176.09" y="272.91" transform="matrix(0.8833 -0.4687 0.4687 0.8833 -115.2803 118.4315)" class="st9" width="8.38" height="35.79"/>
			
				<rect x="357.37" y="307.8" transform="matrix(0.8977 -0.4407 0.4407 0.8977 -117.024 195.1101)" class="st9" width="8.38" height="83.42"/>
			<path class="st9" d="M324.48,259.31l-8.78,4.31l-6.17-12.59c-0.27-0.55-0.04-1.21,0.51-1.48l6.79-3.33
				c0.55-0.27,1.21-0.04,1.48,0.51L324.48,259.31z"/>
			<path class="st10" d="M109.82,378.26c-12.13-0.39-23.69,6.24-24.46,19.28c-0.85,14.36,12,21.17,22.09,22.43
				c11.81,1.47,114.23,6.81,129.61,6.87c18.98,0.07,26.33-11,26.19-21.15c-0.15-10.53-6.27-20.76-23.13-21.39
				C225.97,383.77,123.1,378.69,109.82,378.26z"/>
			<circle class="st11" cx="241.42" cy="405.37" r="17.86"/>
			<line class="st12" x1="230.29" y1="447.47" x2="241.97" y2="411.94"/>
			<line class="st12" x1="247.19" y1="368.2" x2="243.71" y2="394.29"/>
			<g>
				<g>
					<rect x="105" y="331.61" class="st6" width="1.2" height="135.91"/>
					
						<rect x="105" y="331.61" transform="matrix(-1.836970e-16 1 -1 -1.836970e-16 505.1629 293.9586)" class="st6" width="1.2" height="135.91"/>
					
						<rect x="105" y="331.61" transform="matrix(0.7071 0.7072 -0.7072 0.7071 313.4907 42.3732)" class="st6" width="1.2" height="135.91"/>
					
						<rect x="105" y="331.61" transform="matrix(-0.7072 0.7071 -0.7071 -0.7072 462.7896 607.4493)" class="st6" width="1.2" height="135.91"/>
				</g>
				<g>
					
						<rect x="105" y="331.61" transform="matrix(0.9311 0.3648 -0.3648 0.9311 153.0326 -10.9888)" class="st6" width="1.2" height="135.91"/>
					
						<rect x="105" y="331.61" transform="matrix(-0.365 0.931 -0.931 -0.365 516.1419 447.0761)" class="st6" width="1.2" height="135.91"/>
					
						<rect x="105" y="331.61" transform="matrix(0.4005 0.9163 -0.9163 0.4005 429.4345 142.7862)" class="st6" width="1.2" height="135.91"/>
					
						<rect x="105" y="331.61" transform="matrix(-0.9164 0.4003 -0.4003 -0.9164 362.3286 723.4313)" class="st6" width="1.2" height="135.91"/>
				</g>
				<circle class="st6" cx="105.6" cy="399.56" r="17.17"/>
				<path class="st7" d="M105.6,483.09c-46.06,0-83.53-37.47-83.53-83.53c0-46.06,37.47-83.53,83.53-83.53
					c46.06,0,83.53,37.47,83.53,83.53C189.13,445.62,151.66,483.09,105.6,483.09z M105.6,330.11c-38.3,0-69.45,31.16-69.45,69.45
					c0,38.3,31.16,69.45,69.45,69.45c38.3,0,69.45-31.16,69.45-69.45C175.06,361.26,143.9,330.11,105.6,330.11z"/>
				<path class="st8" d="M105.6,469.57c-38.6,0-70.01-31.41-70.01-70.01c0-38.6,31.41-70.01,70.01-70.01
					c38.6,0,70.01,31.41,70.01,70.01C175.61,438.16,144.21,469.57,105.6,469.57z M105.6,335.02c-35.59,0-64.54,28.95-64.54,64.54
					c0,35.59,28.95,64.54,64.54,64.54s64.54-28.95,64.54-64.54C170.14,363.98,141.19,335.02,105.6,335.02z"/>
				<g>
					<path class="st8" d="M114.4,399.56c0,4.86-3.94,8.79-8.79,8.79c-4.86,0-8.79-3.94-8.79-8.79c0-4.86,3.94-8.79,8.79-8.79
						C110.46,390.77,114.4,394.7,114.4,399.56z"/>
					<path class="st7" d="M110.12,399.56c0,2.49-2.02,4.52-4.52,4.52c-2.49,0-4.52-2.02-4.52-4.52c0-2.49,2.02-4.52,4.52-4.52
						C108.1,395.04,110.12,397.07,110.12,399.56z"/>
				</g>
			</g>
			<path class="st13" d="M105.67,414.38c-7.12,0-13.27-4.27-15.73-10.89c-2.47-6.64-0.6-13.91,4.77-18.53l91.53-78.67l7.18,8.35
				l-91.53,78.67c-2.8,2.41-1.96,5.45-1.63,6.33c0.33,0.87,1.67,3.72,5.35,3.72c0.01,0,0.02,0,0.02,0l134.23-1.99l0.16,11.01
				l-134.29,1.99C105.71,414.38,105.69,414.38,105.67,414.38z"/>
			<path class="st13" d="M240.27,413.25c-0.1,0-0.19,0-0.29-0.01c-1.96-0.1-3.72-1.24-4.61-2.99l-54.42-106.39
				c-0.31-0.6-0.07-1.34,0.53-1.65l7.63-3.9c0.6-0.31,1.34-0.07,1.65,0.53l50.09,97.93l80.99-124.29l9.23,6.01l-86.18,132.24
				C243.87,412.32,242.13,413.25,240.27,413.25z"/>
			
				<rect x="189.78" y="281.02" transform="matrix(0.9414 -0.3372 0.3372 0.9414 -81.5737 103.4557)" class="st13" width="134.42" height="11.01"/>
			<path class="st13" d="M337.85,314.17l-23.89-52.46c-0.38-0.83-0.01-1.81,0.82-2.19l7.01-3.19c0.83-0.38,1.81-0.01,2.19,0.82
				l23.89,52.46c0.38,0.83,0.01,1.81-0.82,2.19l-7.01,3.19C339.21,315.37,338.23,315,337.85,314.17z"/>
			<path class="st8" d="M142.86,277.03c0,0,53.15,0,56.77,0s7.12-4.56,7.31-7.85c0.14-2.49-0.77-3.96-4.03-4.2
				c-4.42-0.32-40.96-1.66-49.9-4.28c-8.94-2.62-12.75-3.7-16.14,0.69C131.5,268.36,133.89,277.03,142.86,277.03z"/>
			<path class="st13" d="M309.44,254.15c-9.91-4.64-12.73-22.39-14.35-32.58l-0.18-1.13c-0.95-5.89-6.75-12-14.47-11.61
				c-9.32,0.48-20.1,2.5-20.21,2.52c-1.99,0.37-3.91-0.93-4.29-2.93c-0.38-1.99,0.93-3.91,2.93-4.29
				c0.46-0.09,11.38-2.13,21.19-2.63c11.94-0.61,20.61,8.56,22.09,17.78l0.18,1.14c1.2,7.54,4.37,27.59,12.37,27.52
				c2.03-0.02,3.68,1.62,3.7,3.64c0.01,2.03-1.62,3.68-3.64,3.7C312.79,255.3,311.02,254.89,309.44,254.15z"/>
			<path class="st11" d="M253.92,362.36h-14.5c-1.87,0-3.39,1.52-3.39,3.39c0,1.87,1.52,3.39,3.39,3.39h14.5
				c1.87,0,3.39-1.52,3.39-3.39C257.31,363.88,255.79,362.36,253.92,362.36z"/>
			<path class="st11" d="M241.52,445.2H226.6c-1.76,0-3.18,1.42-3.18,3.18c0,1.76,1.42,3.18,3.18,3.18h14.92
				c1.76,0,3.18-1.42,3.18-3.18C244.7,446.62,243.28,445.2,241.52,445.2z"/>
			<path class="st8" d="M302.16,219.28c-1.48-9.22-10.15-18.39-22.09-17.78c-9.81,0.5-20.73,2.55-21.19,2.63
				c-1.99,0.38-3.3,2.3-2.93,4.29c0.38,1.99,2.3,3.3,4.29,2.93c0.11-0.02,10.88-2.04,20.21-2.52c7.71-0.39,13.52,5.72,14.47,11.61
				l0.18,1.13c0,0,0,0,0,0l7.21-1.4L302.16,219.28z"/>
		</g>
		<g>
			<path class="st14" d="M288.2,262.25c-3.61-1.69-69.58-27.48-83.03-32.75c-24.58,11.5-44.67,13.51-58.41,11.77
				c-0.82,10.1,3.59,18.1,10,20.09c7.75,2.42,77.93,16.27,88.22,18.05c10.3,1.78,34.59,5.99,40.55,2.03
				C294.23,275.66,294.43,265.18,288.2,262.25z"/>
			<rect x="214.36" y="359.82" class="st2" width="53.5" height="2.47"/>
			<path class="st5" d="M223.23,332.49c-2.48,3.49-4.9,7.79-5.92,12.24c1.87,7.89,11.98,5.66,16.23,3.69
				c4.25-1.97,4.35-3.69,4.35-3.69s-0.1-3.49,0.71-6.17C237.99,337.14,223.23,332.49,223.23,332.49z"/>
			<path class="st14" d="M251.23,277.66l-34.9,57.13l21.24,8.12c0,0,43.02-56.38,49.39-65
				C280.96,274.41,251.23,277.66,251.23,277.66z"/>
			<path class="st3" d="M217.61,341.95c-0.77,0-2.57,1.34-3.14,3.81c-0.57,2.47-1.23,11.88,0.41,14.97c5.71,0,52.99,0,52.99,0
				s0.67-8.64-3.09-9.78c-3.76-1.13-27.17-7.41-27.17-7.41s-5.51,4.22-13.17,4.22c-7.67,0-6.35-5.7-6.35-5.7L217.61,341.95z"/>
			
				<rect x="209.37" y="93.49" transform="matrix(0.6325 -0.7746 0.7746 0.6325 1.3102 205.9251)" class="st15" width="16.57" height="16.18"/>
			<path class="st15" d="M218.59,144.99l-0.34,51.6c0,0,63.75,2.64,67.04,2.58c3.29-0.05,3.98,1.91,5.34,4.65
				c1.36,2.74,7.2,13.44-3.05,14.92c-7.49,0.78-11.55-1.14-12.51-2.04c-0.96-0.9-5.01-6.89-5.01-6.89s-49.47,1.21-57.24,1.2
				s-12.29-2.96-13.92-13.99c-1.63-11.03-5.4-48.09-5.4-48.09L218.59,144.99z"/>
			<path class="st16" d="M191.37,150.45c0,0,19.44,1.05,29.32-3.84c1.29-12.22,0.42-34.98-14.01-34.39
				C191.5,112.85,189.9,129.31,191.37,150.45z"/>
			<path class="st13" d="M139.72,249.64c6.35,5.19,50.99-9.55,70.43-20c-6.56-24.79,4.9-72.48,9.45-93.55
				c4.55-21.07-4-36.52-14.73-33.35c-10.73,3.17-51.07,37.08-61.92,88.88C134.99,221.03,139.72,249.64,139.72,249.64z"/>
			<path class="st14" d="M179.94,185.89c-13.83,7.22-27.39,10.63-38.56,9.53l0.43-4.31c13.68,1.35,31.46-4.74,48.77-16.72
				c15.69-10.86,27.44-24.27,29.93-34.16c2.3-9.13-0.03-17.63-6.22-22.72c-7.19-5.92-17.94-6.18-29.5-0.74l-1.85-3.92
				c18.65-8.79,30.06-2.01,34.1,1.31c7.51,6.18,10.38,16.32,7.67,27.12c-2.73,10.85-15.16,25.25-31.66,36.67
				C188.69,180.96,184.3,183.61,179.94,185.89z"/>
			<path class="st5" d="M212.97,147.33l1.77,51.57c0,0,63.8,0.04,67.09-0.15c3.28-0.19,4.05,1.75,5.53,4.43
				c1.47,2.68,7.74,13.13-2.43,15.04c-7.45,1.09-11.58-0.67-12.58-1.53c-1-0.86-5.29-6.68-5.29-6.68s-49.38,3.22-57.14,3.54
				c-7.76,0.31-12.4-2.45-14.48-13.41c-2.08-10.95-7.35-47.83-7.35-47.83L212.97,147.33z"/>
			<path class="st17" d="M185.99,153.9c0,0,19.47,0.26,29.14-5.04c0.79-12.27-1.01-34.97-15.4-33.79
				C184.59,116.32,183.66,132.83,185.99,153.9z"/>
			<path class="st17" d="M222.07,112.16l-1.01,1.33c-0.64,0.83-1.83,0.99-2.66,0.35l-13.1-10.03c-0.83-0.64-0.99-1.83-0.35-2.66
				l1.01-1.33c0.64-0.83,1.83-0.99,2.66-0.35l13.1,10.03C222.55,110.13,222.7,111.32,222.07,112.16z"/>
			<path class="st17" d="M128.59,210.46l-59.38-30.44c-4.11-2.11-5.74-7.15-3.63-11.26l46.91-91.48c2.11-4.11,7.15-5.74,11.26-3.63
				l59.38,30.44c4.11,2.11,5.74,7.15,3.63,11.26c0,0-40.05,51.84-46.91,91.48C139.16,210.84,132.7,212.57,128.59,210.46z"/>
			<path class="st13" d="M128.38,204.3l-54.02-27.7c-3.74-1.92-5.22-6.51-3.3-10.25l42.68-83.24c1.92-3.74,6.51-5.22,10.25-3.3
				l54.03,27.7c3.74,1.92,5.22,6.51,3.3,10.25c0,0-36.44,47.16-42.68,83.24C138,204.64,132.12,206.22,128.38,204.3z"/>
			<path class="st14" d="M183.13,104.09l-59.38-30.44c-4.11-2.11-9.15-0.48-11.26,3.63l-5.28,10.29l72.41,37.6
				c4.29-6.14,7.13-9.81,7.13-9.81C188.86,111.24,187.24,106.19,183.13,104.09z"/>
			<path class="st17" d="M118.81,176.38l-19.86-10.22c-2.05-1.05-2.86-3.57-1.8-5.62l12.13-23.57l27.28,14.04l-12.13,23.57
				C123.38,176.63,120.86,177.44,118.81,176.38z"/>
			
				<rect x="104.36" y="143.28" transform="matrix(0.8892 0.4575 -0.4575 0.8892 80.5916 -39.3294)" class="st14" width="34.28" height="6.92"/>
			<g>
				<path class="st5" d="M210.3,95.5c0,0,31.27,19.28,39.73,11.64c1.28-1.15,4.37-11.05,6.21-18.25
					c2.71-10.63,4.43-24.55,1.94-33.83c-4.12-15.34-21.75-36.69-36.49-31.59C206.95,28.57,173.83,48.79,210.3,95.5z"/>
				
					<linearGradient id="SVGID_1_" gradientUnits="userSpaceOnUse" x1="373.8615" y1="-185.138" x2="457.8339" y2="-185.138" gradientTransform="matrix(0.9896 -0.1442 0.1442 0.9896 -157.6183 304.8919)">
					<stop  offset="0" style="stop-color:#4A332B"/>
					<stop  offset="1" style="stop-color:#382723"/>
				</linearGradient>
				<path class="st18" d="M230.95,60.42c3.98,22.52-1.74,15.65-2.98,2.36c-0.68,3.77-2.14,12.91-6.04,22.23
					c-3.89,9.32-6.04,9.94-12.43,11.74c-8.05-2.31-13.96-13.74-13.96-13.74s2.36,5.91,0.59,6.5c-1.77,0.59-10.05-11.03-10.25-21.28
					C185.7,57.99,205,35.33,217.81,31c12.81-4.33,33.89,3.35,33.89,3.35s7.61,2.5,14.25,2.06c-1.81,5.44-9.84,6.48-9.84,6.48
					s1.73,3.37,7.25,2.5c-5.57,5.97-25.3,8.2-29.79,5.7C236.33,56.01,237.28,64.22,230.95,60.42z"/>
				<path class="st5" d="M252.12,67.91c-0.03-0.02-0.04-0.02-0.07-0.04l0.78-1.93c4,4.55,8.73,7.8,13.07,11.25
					c-9.02,8.68-18.12,0.77-15.96-9.82C250.82,67.38,251.66,67.7,252.12,67.91C252.64,68.21,252.56,68.11,252.12,67.91z"/>
				<g>
					
						<linearGradient id="SVGID_2_" gradientUnits="userSpaceOnUse" x1="-21360.3691" y1="-3929.8042" x2="-21358.9219" y2="-3920.6094" gradientTransform="matrix(0.9985 0.0544 -0.0544 0.9985 21364.6699 5145.0342)">
						<stop  offset="0" style="stop-color:#BA916C"/>
						<stop  offset="1" style="stop-color:#BA916C;stop-opacity:0"/>
					</linearGradient>
					<path class="st19" d="M255.08,57.9c0.35,2.22,1.43,10.23-4.83,10.9c-6.26,0.67-4.66-9.1-4.66-9.1S252.22,58.26,255.08,57.9z"/>
					
						<linearGradient id="SVGID_3_" gradientUnits="userSpaceOnUse" x1="-21670.6133" y1="-1936.7532" x2="-21661.2949" y2="-1936.7532" gradientTransform="matrix(0.983 0.1838 -0.1838 0.983 21191.9551 5944.9609)">
						<stop  offset="0" style="stop-color:#4A332B"/>
						<stop  offset="1" style="stop-color:#382723"/>
					</linearGradient>
					<path class="st20" d="M253.62,57.41c-6.77-0.04-11.56,3.41-5.34,3.05C254.5,60.09,257.15,57.43,253.62,57.41z"/>
					<path class="st21" d="M248.24,68.13c1.74-3.61,5.7-2.32,5.63,0.74"/>
				</g>
				<g>
					<path class="st22" d="M238.47,85.19c-0.39,0.53-0.5,1.18-0.51,1.8c0.01,0.63,0.09,1.25,0.31,1.83c0.41,1.16,1.19,2.16,2.19,2.9
						c1,0.74,2.15,1.27,3.35,1.71c0.6,0.22,1.23,0.36,1.85,0.55c0.63,0.15,1.27,0.27,1.91,0.44c-0.66,0.01-1.31-0.03-1.98-0.05
						c-0.65-0.11-1.31-0.19-1.96-0.34c-1.3-0.31-2.56-0.86-3.67-1.67c-1.09-0.83-1.98-2.01-2.29-3.37
						c-0.17-0.67-0.19-1.37-0.11-2.04C237.71,86.31,237.93,85.6,238.47,85.19z"/>
				</g>
				<line class="st23" x1="239.43" y1="79.29" x2="223.32" y2="62.62"/>
				<line class="st23" x1="235.31" y1="103.06" x2="218.06" y2="73.97"/>
				<path class="st5" d="M215.13,70.18c1.55,4.91,6.86,10.11,10.08,9.09c3.23-1.02,4.59-5.82,3.05-10.73
					c-1.54-4.91-5.2-11.09-9.41-9.5C215.69,60.25,213.58,65.28,215.13,70.18z"/>
			</g>
		</g>
		<path class="st24" d="M259.43,67.32c-0.44,1.42-3.55,5.14-7.85,7.89c-4.3,2.75-10.92,2.69-13.52,2.51
			c-4.26,6.88-5.82,22.64-3.33,26.46c5.13,2.7,12.66,4.34,18.24,4.11c1.01-0.04,1.95-0.49,2.59-1.27
			c6.85-8.23,12.43-27.72,11.75-30.18C266.6,74.26,260.41,70.64,259.43,67.32z"/>
		<path class="st25" d="M239.83,79.71c6.85-0.14,12.53-1.65,17.02-6.32c1.21-1.26,2.34-2.77,3.37-4.53
			c-0.36-0.52-0.64-1.03-0.79-1.54c-0.44,1.42-3.55,5.14-7.85,7.89c-4.3,2.75-10.92,2.69-13.52,2.51
			c-4.26,6.88-5.81,22.64-3.33,26.46c5.13,2.7,12.66,4.34,18.24,4.11c1-0.04,1.92-0.48,2.57-1.24c-3.57-0.28-14.96-1.37-18.75-3.93
			C234.52,98.26,236.63,84.18,239.83,79.71z"/>
		<g>
			<path class="st14" d="M199.81,14.74c0.57,1.61,2.9,2.26,5.19,1.44c2.3-0.82,3.69-2.79,3.12-4.4c-0.57-1.61-2.9-2.26-5.19-1.44
				C200.63,11.16,199.24,13.13,199.81,14.74z"/>
			<path class="st14" d="M285.47,23.71c-4.06,1.72-29.02,11.38-31.54,12.55c-2.62-0.71-2.12-5.97-2.12-5.97s28.41-8.83,32.23-9.99
				C286.68,19.49,287.91,22.58,285.47,23.71z"/>
			<path class="st13" d="M255.46,35.47C243,44.66,196.41,65,185.97,71.25c-3.45-6.19-26.47-39.05,7.08-53.47
				c31.09-13.37,43.99-10.83,52.67-0.98C251.81,23.7,255.46,35.47,255.46,35.47z"/>
			
				<linearGradient id="SVGID_4_" gradientUnits="userSpaceOnUse" x1="2311.2827" y1="-848.2523" x2="2323.0088" y2="-848.2523" gradientTransform="matrix(-0.6984 0.7157 0.7157 0.6984 2409.105 -1007.1982)">
				<stop  offset="0" style="stop-color:#4A332B"/>
				<stop  offset="1" style="stop-color:#382723"/>
			</linearGradient>
			<path class="st26" d="M193.67,61.2c-6.3,3.21-9.44,4.63-10.59,5.13c-1.97-3.45-4.4-8.14-6.06-13.34
				C182.45,51.97,191.17,55.78,193.67,61.2z"/>
		</g>
	</g>
</g>
<g id="Layer_3">
	
		<rect x="106.16" y="107.66" transform="matrix(0.8913 0.4534 -0.4534 0.8913 70.3842 -47.2583)" class="st13" width="55.23" height="31.04"/>
	<g>
		<path class="st27" d="M116.87,103.83l-0.23,2.3l2.27-0.53l0.81-0.03l0.5,0.05l0.51,0.17l0.41,0.29l0.28,0.47l0.11,0.37l0.06,0.44
			l-0.03,0.9l-0.09,0.72l-0.17,0.74l-0.37,1.07l-0.27,0.58l-0.37,0.68l-0.42,0.64l-0.63,0.82l-0.61,0.66l-0.32,0.29l-0.1-0.03
			l0.09-0.66l0.15-0.99l0.19-1.14l0.16-1.05l0.22-1.36l0.14-0.87l0-0.4l-0.08-0.29l-0.22-0.15l-0.24-0.06l-0.28,0.03l-0.5,0.26
			l-0.25,0.28l-0.15,0.28l-0.02,0.38l0.04,0.58l-0.02,0.47l-0.06,0.52l-0.34,1.83l-0.31,1.76l-0.23,1.38l-0.1,0.29l-0.07,0.16
			l-0.17,0.24l-0.24,0.19l-0.52,0.26l-0.44,0.11l-0.55,0.11l-0.77-0.06l-0.4-0.1l-0.37-0.21l-0.34-0.26l-0.37-0.44l-0.4-0.79
			l-0.11-0.52l-0.1-0.67l-0.03-0.71l0.04-0.52l0.13-0.73l0.15-0.63l0.17-0.48l0.27-0.66l0.42-0.76l0.6-0.79l0.68-0.67l0.83-0.61
			l1-0.53l1.05-0.39l0-2.22c0,0-0.3,0.09-0.31,0.1c-0.01,0.02-1.32,0.7-1.32,0.7l-0.91,0.63l-0.81,0.67l-0.68,0.65l-0.67,0.75
			l-0.63,0.87l-0.51,0.94l-0.25,0.57l-0.36,1.09l-0.21,1.18l-0.03,0.83l0.12,1.2l0.27,1.27l0.26,0.74l0.47,0.83l0.52,0.56l0.3,0.21
			l0.65,0.22l0.56,0.02l0.52-0.04l0.63-0.1l0.67-0.2l0.62-0.22l0.36-0.18l-0.17,0.89l-0.29,1.4l-0.18,0.98l-0.12,0.62l0,0.47
			l0.19,0.37l0.24,0.12l0.41-0.02l0.28-0.16l0.22-0.26l0.17-0.3l0.17-0.45l0.13-0.8l0.17-1.18l0.16-1.21l0.13-0.8l0.05-0.33
			l0.2-0.39l0.45-0.34l0.82-0.6l0.58-0.54l0.64-0.73l0.48-0.65l0.4-0.59l0.37-0.65l0.46-0.9l0.29-0.68l0.32-0.87l0.22-0.72
			l0.24-0.96l0.15-0.91l0.07-0.85l-0.11-0.86l-0.11-0.38l-0.22-0.43l-0.31-0.36l-0.5-0.35l-0.76-0.3l-0.76-0.15l-0.7-0.04
			l-1.01,0.09l-0.83,0.15l-0.69,0.22L116.87,103.83z"/>
		<polygon class="st27" points="128.25,107.23 128.6,106.15 128.45,105.77 128.06,105.77 127.06,106.5 126.09,107.55 125.14,108.79 
			124.3,110.19 123.91,111.06 123.76,111.64 123.78,112 123.86,112.11 124.08,112.14 124.55,111.95 125.18,111.48 126.07,110.54 
			126.91,109.47 127.62,108.4 128.05,107.65 		"/>
		<path class="st27" d="M140,122.59l-0.56,1.83l1.31,0.16c0,0,0.92,0.12,0.9,0.11c-0.01-0.01,0.22,0.13,0.22,0.13l0,0.15l-0.11,0.25
			l-0.36,0.71l-0.37,0.77l-0.47,1.08l-0.4,0.95l-0.17,0.57l-0.05,0.42l0.04,0.23l0.15,0.11l0.19-0.01l0.38-0.11l0.33-0.55l0.57-1.01
			l0.58-1.34l0.43-1.08l0.24-0.56l0.21-0.17l0.22-0.19l0.41-0.65l0.23-0.67l-0.01-0.47l-0.15-0.29l-0.1-0.13l0.04-0.22l0.26-0.67
			l0.4-1.11l0.39-1.31l0.28-1.15l0.17-1.1l0-0.91l-0.11-0.43l-0.19-0.28l-0.27-0.09l-0.39,0.06l-0.67,0.31l-0.97,0.68l-1,0.93
			l-1.03,1.02l-0.78,0.8l-0.85,0.93l-0.94,1.06l-1.01,1.2l-1.06,1.27l-0.98,1.21l-0.85,1.08l-0.54,0.8c0,0-0.24,0.41-0.24,0.51
			c0,0.09-0.06,0.25-0.06,0.25l0.03,0.26l0.05,0.13l0.24,0.1l0.34-0.03l0.26-0.13l0.33-0.22l0.59-0.6l0.49-0.68l0.55-0.86l0.56-0.76
			l0.41-0.36l0.35-0.11l0.67-0.03l1.64,0.11l0.41-1.92l-0.56-0.04l-0.33-0.06l-0.11-0.13l0.08-0.29l0.27-0.34l0.7-0.8l0.74-0.77
			l0.42-0.41l0.73-0.61l0.74-0.42l0.29-0.07l0.18,0.08l0.11,0.15l0.09,0.43l-0.01,0.45l-0.14,0.7l-0.31,1.02l-0.38,0.91l-0.14,0.32
			l-0.11,0.22l-0.15,0.08l-0.29-0.05l-0.4-0.11l-0.91-0.16l-0.59-0.08L140,122.59z"/>
		<path class="st28" d="M115.32,104.62c1.89-1.14,3.96-1.65,5.72-1.32c0.59,0.11,1.16,0.32,1.6,0.73c0.8,0.73,0.87,1.98,0.62,3.38
			c-0.59,3.28-2.34,6.68-5.03,8.41c0,0-0.54,0.25-0.57,0.98c0,0-0.52,3.56-0.52,3.57c-0.11,0.76-0.44,1.58-1.15,1.61
			c-0.61,0.03-0.69-0.69-0.53-1.36l0.71-3.51c0,0-2.54,1.32-4.12,0.46c0,0-1.14-0.72-1.54-2.69c-0.17-0.86-0.35-1.63-0.29-2.62
			c0.11-1.83,0.94-3.71,2.19-5.16C113.29,106.07,114.28,105.24,115.32,104.62z"/>
		<path class="st28" d="M116.21,106.31c-0.85,0.33-1.68,0.79-2.45,1.52c-2.72,2.57-3.04,7.72-0.37,8.65
			c0.67,0.23,1.63,0.14,2.4-0.27c0.44-0.24,0.66-0.6,0.74-1.13c0.1-0.61,0.2-1.23,0.32-1.85c0.13-0.69,0.27-1.44,0.39-2.15
			c0.09-0.52,0.21-1.04,0.25-1.55c0.03-0.4-0.15-0.88,0-1.3c0.17-0.47,0.67-0.7,1.01-0.75c0.23-0.04,0.47,0.02,0.59,0.22
			c0.23,0.4-0.02,1.24-0.1,1.78c-0.1,0.66-0.2,1.32-0.31,1.97c-0.15,0.96-0.3,1.92-0.45,2.89c-0.01,0.03-0.01,0.07,0,0.1
			c0.04,0.11,0.21-0.08,0.27-0.13c0,0,3.15-2.69,3.12-6.84c-0.01-2.11-1.9-2.07-3.37-1.74
			C117.57,105.87,116.89,106.05,116.21,106.31z"/>
		
			<ellipse transform="matrix(0.5858 -0.8105 0.8105 0.5858 -36.0375 147.3716)" class="st29" cx="126.16" cy="108.94" rx="3.91" ry="0.91"/>
		<path class="st29" d="M123.55,120.07c0,0,7.34-11.32,9.09-10.49c0,0,1.21,0.23-0.98,6.7c1.11-1.62,2.55-3.31,4.14-3.85
			c0.94-0.32,1.14,0.51,1.03,1.48c-0.28,2.4-1.09,4.84-1.96,7.24c-0.5,1.39-1.03,2.79-1.71,4.12c-0.17,0.33-0.35,0.66-0.58,0.95
			c-0.09,0.11-0.19,0.22-0.3,0.28c-0.29,0.16-0.54-0.1-0.59-0.43c-0.09-0.55,0.19-1.21,0.45-1.81c0.53-1.21,1.09-2.46,1.63-3.68
			c0.39-0.88,0.79-1.76,1.06-2.66c0.17-0.58,0.62-2.07,0-2.17c-0.21-0.03-0.45,0.09-0.67,0.25c-0.73,0.52-1.35,1.41-1.89,2.22
			c-1.04,1.66-2.1,3.33-3.09,5.03c-0.28,0.48-0.58,0.76-0.98,0.59c-0.61-0.25-0.61-1-0.35-1.82c0.44-1.33,1.15-2.61,1.68-3.92
			c0.51-1.26,1-2.58,1.16-3.88c0.04-0.33,0.07-0.79-0.18-0.91c-0.18-0.08-0.47,0.11-0.66,0.25c-0.98,0.74-1.81,2.06-2.51,3.16
			c-0.64,1.02-1.24,2.07-1.82,3.13c-0.16,0.29-0.32,0.59-0.47,0.88c-0.13,0.24-0.26,0.48-0.39,0.72c-0.25,0.46-0.43,0.86-0.85,1.11
			c-0.19,0.12-0.39,0.17-0.56,0.11c-0.25-0.09-0.37-0.4-0.41-0.71C122.79,121.33,123.16,120.63,123.55,120.07z"/>
		<path class="st28" d="M144.88,115.63c0.01,0,0.01,0.01,0.02,0.01c0.19,0.12,0.28,0.38,0.32,0.65c0.14,1.11-0.21,2.4-0.56,3.59
			c-0.26,0.91-0.57,1.82-0.91,2.71c-0.04,0.1-0.07,0.22-0.03,0.3c0.02,0.05,0.05,0.07,0.08,0.11c0.27,0.29,0.14,0.87-0.06,1.33
			c0,0-0.3,0.67-0.64,0.91c0,0-0.16,0-0.36,0.49c0,0-1,2.82-2.01,4.2c0,0-0.34,0.23-0.53,0.13c0,0-0.6,0.09,0.12-1.67
			c0,0,0.7-1.73,1.48-3.17c0,0,0.25-0.35,0.02-0.47c-0.8-0.13-1.61-0.23-2.42-0.3c-0.52-0.04-1.05-0.08-1.59-0.05
			c-0.17,0.01-0.38,0.01-0.56,0.09c-0.42,0.18-0.85,0.85-1.13,1.28c-0.52,0.8-1.11,1.8-1.87,2.25c-0.29,0.17-0.88,0.32-0.94-0.12
			c-0.07-0.54,0.56-1.36,0.85-1.78c0.37-0.48,0.75-0.96,1.14-1.43c0.89-1.1,1.79-2.19,2.72-3.25c1.05-1.21,2.13-2.4,3.26-3.5
			c0.84-0.82,1.79-1.74,2.76-2.18C144.31,115.59,144.63,115.5,144.88,115.63z"/>
		<path class="st28" d="M142.43,122.93c0.18-0.21,0.32-0.58,0.43-0.84c0.18-0.41,0.32-0.83,0.44-1.25c0.18-0.62,0.34-1.33,0.2-1.88
			c-0.12-0.5-0.56-0.31-0.94-0.09c-0.6,0.34-1.15,0.85-1.68,1.38c-0.54,0.54-1.05,1.12-1.54,1.73c0,0-0.33,0.48,0.13,0.53
			c0.49,0.05,0.99,0.12,1.47,0.19c0.25,0.04,0.5,0.08,0.75,0.14c0.12,0.03,0.24,0.05,0.36,0.08c0.09,0.02,0.22,0.11,0.33,0.05
			C142.39,122.97,142.41,122.95,142.43,122.93z"/>
		<g>
			<path class="st29" d="M146,126.71l2.26-4.64c2.2-0.57,4.84,1.37,4.84,1.37c0.63,0.59,1.52-0.79,1.55-1.62
				c0.01-0.28-0.07-0.52-0.2-0.7c-0.2-0.29-0.48-0.5-0.76-0.67c-0.53-0.32-1.14-0.48-1.75-0.59c-0.85-0.15-1.72-0.22-2.62-0.21
				c-0.1,0-1.62,0.08-1.6,0.01c-0.29,0.82-0.6,1.64-0.94,2.45c-0.55,1.3-1.25,2.56-1.9,3.82c-0.47,0.92-0.93,1.83-1.4,2.74
				c-0.22,0.43-0.43,0.87-0.66,1.3c-0.25,0.45-0.5,0.88-0.7,1.36c-0.12,0.3-0.23,0.61-0.23,0.9c0,0.69,0.65,0.72,1.14,0.58
				c0.6-0.17,1.2-0.05,1.74,0.03c0.79,0.12,1.56,0.33,2.25,0.69c0.31,0.17,0.61,0.37,0.88,0.61c0,0,0.85,0.73,1.25-0.04
				c0.14-0.27,0.27-0.49,0.3-0.8c0.07-0.76-0.45-1.2-0.92-1.42c-0.41-0.19-0.82-0.37-1.23-0.54c-0.92-0.39-1.86-0.81-2.9-0.91
				c0,0-0.29-0.03-0.16-0.28c0,0,0.6-1.11,0.6-1.11c0.03-0.05,0.28-0.07,0.31-0.08c0.33-0.06,0.65-0.07,0.96-0.05
				c1.4,0.07,2.69,0.56,3.88,1.15c0.22,0.11,0.43,0.22,0.65,0.34c0.04,0.02,0.09,0.05,0.15,0.03c0.08-0.03,0.14-0.13,0.18-0.22
				c0.2-0.39,0.39-0.78,0.59-1.17c0.05-0.1,0.1-0.2,0.13-0.31c0.19-0.71-0.43-1.13-0.87-1.18
				C150.83,127.53,146.49,127.06,146,126.71z"/>
		</g>
		
			<ellipse transform="matrix(0.4534 -0.8913 0.8913 0.4534 -38.2307 209.3363)" class="st29" cx="151.55" cy="135.84" rx="1.68" ry="0.96"/>
		<path class="st29" d="M160.13,121.56c-0.67-0.38-1.48-0.48-2.35-0.28c-0.51,0.12-1.03,0.34-1.5,0.75
			c-0.23,0.2-0.45,0.46-0.54,0.77c-0.08,0.27-0.05,0.53,0.04,0.73c0.12,0.28,0.33,0.48,0.61,0.52c0.3,0.04,0.63-0.1,0.95-0.2
			c0.48-0.14,0.97-0.19,1.39-0.07c1.29,0.35,1.71,2.66,0.79,4.34c0,0-1.18,1.81-3.77,2.16c0,0-2.26,0.25-2.8,1.78
			c-0.16,0.46-0.09,1.19,0.19,1.39c0.43,0.32,1.23-0.23,1.76-0.42c0.49-0.18,0.99-0.36,1.48-0.54c0.94-0.36,1.93-0.69,2.84-1.35
			c1.3-0.95,2.16-2.51,2.48-4.16c0.28-1.46,0.26-2.88-0.26-3.98C161.14,122.35,160.68,121.87,160.13,121.56z"/>
	</g>
	<path class="st30" d="M116.83,103.41l-0.23,2.3l2.27-0.53l0.81-0.03l0.5,0.05l0.51,0.17l0.41,0.29l0.28,0.47l0.11,0.37l0.06,0.44
		l-0.03,0.9l-0.09,0.72l-0.17,0.74l-0.37,1.07l-0.27,0.58l-0.37,0.68l-0.42,0.64l-0.63,0.82l-0.61,0.66l-0.32,0.29l-0.1-0.03
		l0.09-0.66l0.15-0.99l0.19-1.14l0.16-1.05l0.22-1.36l0.14-0.87l0-0.4l-0.08-0.29l-0.22-0.15l-0.24-0.06l-0.28,0.03l-0.5,0.26
		l-0.25,0.28l-0.15,0.28l-0.02,0.38l0.04,0.58l-0.02,0.47l-0.06,0.52l-0.34,1.83l-0.31,1.76l-0.23,1.38l-0.1,0.29l-0.07,0.16
		l-0.17,0.24l-0.24,0.19l-0.52,0.26l-0.44,0.11l-0.55,0.11l-0.77-0.06l-0.4-0.1l-0.37-0.21l-0.34-0.26l-0.37-0.44l-0.4-0.79
		l-0.11-0.52l-0.1-0.67l-0.03-0.71l0.04-0.52l0.13-0.73l0.15-0.63l0.17-0.48l0.27-0.66l0.42-0.76l0.6-0.79l0.68-0.67l0.83-0.61
		l1-0.53l1.05-0.39l0-2.22c0,0-0.3,0.09-0.31,0.1s-1.32,0.7-1.32,0.7l-0.91,0.63l-0.81,0.67l-0.68,0.65l-0.67,0.75l-0.63,0.87
		l-0.51,0.94l-0.25,0.57l-0.36,1.09l-0.21,1.18l-0.03,0.83l0.12,1.2l0.27,1.27l0.26,0.74l0.47,0.83l0.52,0.56l0.3,0.21l0.65,0.22
		l0.56,0.02l0.52-0.04l0.63-0.1l0.67-0.2l0.62-0.22l0.36-0.18l-0.17,0.89l-0.29,1.4l-0.18,0.98l-0.12,0.62l0,0.47l0.19,0.37
		l0.24,0.12l0.41-0.02l0.28-0.16l0.22-0.26l0.17-0.3l0.17-0.45l0.13-0.8l0.17-1.18l0.16-1.21l0.13-0.8l0.05-0.33l0.2-0.39l0.45-0.34
		l0.82-0.6l0.58-0.54l0.64-0.73l0.48-0.65l0.4-0.59l0.37-0.65l0.46-0.9l0.29-0.68l0.32-0.87l0.22-0.72l0.24-0.96l0.15-0.91
		l0.07-0.85l-0.11-0.86l-0.11-0.38l-0.22-0.43l-0.31-0.36l-0.5-0.35l-0.76-0.3l-0.76-0.15l-0.7-0.04l-1.01,0.09l-0.83,0.15
		l-0.69,0.22L116.83,103.41z"/>
	<polygon class="st30" points="128.21,106.81 128.56,105.73 128.41,105.35 128.03,105.35 127.03,106.08 126.05,107.13 125.1,108.37 
		124.26,109.77 123.87,110.64 123.73,111.22 123.74,111.58 123.82,111.69 124.04,111.72 124.52,111.53 125.14,111.06 126.03,110.12 
		126.87,109.05 127.59,107.98 128.01,107.23 	"/>
	<path class="st30" d="M139.96,122.17L139.4,124l1.31,0.16c0,0,0.92,0.12,0.9,0.11s0.22,0.13,0.22,0.13l0,0.15l-0.11,0.25
		l-0.36,0.71l-0.37,0.77l-0.47,1.08l-0.4,0.95l-0.17,0.57l-0.05,0.42l0.04,0.23l0.15,0.11l0.19-0.01l0.38-0.11l0.33-0.55l0.57-1.01
		l0.58-1.34l0.43-1.08l0.24-0.56l0.21-0.17l0.22-0.19l0.41-0.65l0.23-0.67l-0.01-0.47l-0.15-0.29l-0.1-0.13l0.04-0.22l0.26-0.67
		l0.4-1.11l0.39-1.31l0.28-1.15l0.17-1.1l0-0.91l-0.11-0.43l-0.19-0.28l-0.27-0.09l-0.39,0.06l-0.67,0.31l-0.97,0.68l-1,0.93
		l-1.03,1.02l-0.78,0.8l-0.85,0.93l-0.94,1.06l-1.01,1.2l-1.06,1.27l-0.98,1.21l-0.85,1.08l-0.54,0.8c0,0-0.24,0.41-0.24,0.51
		c0,0.09-0.06,0.25-0.06,0.25l0.03,0.26l0.05,0.13l0.24,0.1l0.34-0.03l0.26-0.13l0.33-0.22l0.59-0.6l0.49-0.68l0.55-0.86l0.56-0.76
		l0.41-0.36l0.35-0.11l0.67-0.03l1.64,0.11l0.41-1.92l-0.56-0.04l-0.33-0.06l-0.11-0.13l0.08-0.29l0.27-0.34l0.7-0.8l0.74-0.77
		l0.42-0.41l0.73-0.61l0.74-0.42l0.29-0.07l0.18,0.08l0.11,0.15l0.09,0.43l-0.01,0.45l-0.14,0.7l-0.31,1.02l-0.38,0.91l-0.14,0.32
		l-0.11,0.22l-0.15,0.08l-0.29-0.05l-0.4-0.11l-0.91-0.16l-0.59-0.08L139.96,122.17z"/>
	<path class="st31" d="M115.28,104.2c1.89-1.14,3.96-1.65,5.72-1.32c0.59,0.11,1.16,0.32,1.6,0.73c0.8,0.73,0.87,1.98,0.62,3.38
		c-0.59,3.28-2.34,6.68-5.03,8.41c0,0-0.54,0.25-0.57,0.98c0,0-0.52,3.56-0.52,3.57c-0.11,0.76-0.44,1.58-1.15,1.61
		c-0.61,0.03-0.69-0.69-0.53-1.36l0.71-3.51c0,0-2.54,1.32-4.12,0.46c0,0-1.14-0.72-1.54-2.69c-0.17-0.86-0.35-1.63-0.29-2.62
		c0.11-1.83,0.94-3.71,2.19-5.16C113.25,105.65,114.24,104.82,115.28,104.2z"/>
	<path class="st31" d="M116.18,105.89c-0.85,0.33-1.68,0.79-2.45,1.52c-2.72,2.57-3.04,7.72-0.37,8.65c0.67,0.23,1.63,0.14,2.4-0.27
		c0.44-0.24,0.66-0.6,0.74-1.13c0.1-0.61,0.2-1.23,0.32-1.85c0.13-0.69,0.27-1.44,0.39-2.15c0.09-0.52,0.21-1.04,0.25-1.55
		c0.03-0.4-0.15-0.88,0-1.3c0.17-0.47,0.67-0.7,1.01-0.75c0.23-0.04,0.47,0.02,0.59,0.22c0.23,0.4-0.02,1.24-0.1,1.78
		c-0.1,0.66-0.2,1.32-0.31,1.97c-0.15,0.96-0.3,1.92-0.45,2.89c-0.01,0.03-0.01,0.07,0,0.1c0.04,0.11,0.21-0.08,0.27-0.13
		c0,0,3.15-2.69,3.12-6.84c-0.01-2.11-1.9-2.07-3.37-1.74C117.53,105.45,116.85,105.63,116.18,105.89z"/>
	
		<ellipse transform="matrix(0.5858 -0.8105 0.8105 0.5858 -35.7123 147.167)" class="st31" cx="126.12" cy="108.52" rx="3.91" ry="0.91"/>
	<path class="st32" d="M123.51,119.65c0,0,7.34-11.32,9.09-10.49c0,0,1.21,0.23-0.98,6.7c1.11-1.62,2.55-3.31,4.14-3.85
		c0.94-0.32,1.14,0.51,1.03,1.48c-0.28,2.4-1.09,4.84-1.96,7.24c-0.5,1.39-1.03,2.79-1.71,4.12c-0.17,0.33-0.35,0.66-0.58,0.95
		c-0.09,0.11-0.19,0.22-0.3,0.28c-0.29,0.16-0.54-0.1-0.59-0.43c-0.09-0.55,0.19-1.21,0.45-1.81c0.53-1.21,1.09-2.46,1.63-3.68
		c0.39-0.88,0.79-1.76,1.06-2.66c0.17-0.58,0.62-2.07,0-2.17c-0.21-0.03-0.45,0.09-0.67,0.25c-0.73,0.52-1.35,1.41-1.89,2.22
		c-1.04,1.66-2.1,3.33-3.09,5.03c-0.28,0.48-0.58,0.76-0.98,0.59c-0.61-0.25-0.61-1-0.35-1.82c0.44-1.33,1.15-2.61,1.68-3.92
		c0.51-1.26,1-2.58,1.16-3.88c0.04-0.33,0.07-0.79-0.18-0.91c-0.18-0.08-0.47,0.11-0.66,0.25c-0.98,0.74-1.81,2.06-2.51,3.16
		c-0.64,1.02-1.24,2.07-1.82,3.13c-0.16,0.29-0.32,0.59-0.47,0.88c-0.13,0.24-0.26,0.48-0.39,0.72c-0.25,0.46-0.43,0.86-0.85,1.11
		c-0.19,0.12-0.39,0.17-0.56,0.11c-0.25-0.09-0.37-0.4-0.41-0.71C122.76,120.91,123.12,120.21,123.51,119.65z"/>
	<path class="st31" d="M144.84,115.21c0.01,0,0.01,0.01,0.02,0.01c0.19,0.12,0.28,0.38,0.32,0.65c0.14,1.11-0.21,2.4-0.56,3.59
		c-0.26,0.91-0.57,1.82-0.91,2.71c-0.04,0.1-0.07,0.22-0.03,0.3c0.02,0.05,0.05,0.07,0.08,0.11c0.27,0.29,0.14,0.87-0.06,1.33
		c0,0-0.3,0.67-0.64,0.91c0,0-0.16,0-0.36,0.49c0,0-1,2.82-2.01,4.2c0,0-0.34,0.23-0.53,0.13c0,0-0.6,0.09,0.12-1.67
		c0,0,0.7-1.73,1.48-3.17c0,0,0.25-0.35,0.02-0.47c-0.8-0.13-1.61-0.23-2.42-0.3c-0.52-0.04-1.05-0.08-1.59-0.05
		c-0.17,0.01-0.38,0.01-0.56,0.09c-0.42,0.18-0.85,0.85-1.13,1.28c-0.52,0.8-1.11,1.8-1.87,2.25c-0.29,0.17-0.88,0.32-0.94-0.12
		c-0.07-0.54,0.56-1.36,0.85-1.78c0.37-0.48,0.75-0.96,1.14-1.43c0.89-1.1,1.79-2.19,2.72-3.25c1.05-1.21,2.13-2.4,3.26-3.5
		c0.84-0.82,1.79-1.74,2.76-2.18C144.27,115.17,144.6,115.08,144.84,115.21z"/>
	<path class="st31" d="M142.4,122.5c0.18-0.21,0.32-0.58,0.43-0.84c0.18-0.41,0.32-0.83,0.44-1.25c0.18-0.62,0.34-1.33,0.2-1.88
		c-0.12-0.5-0.56-0.31-0.94-0.09c-0.6,0.34-1.15,0.85-1.68,1.38c-0.54,0.54-1.05,1.12-1.54,1.73c0,0-0.33,0.48,0.13,0.53
		c0.49,0.05,0.99,0.12,1.47,0.19c0.25,0.04,0.5,0.08,0.75,0.14c0.12,0.03,0.24,0.05,0.36,0.08c0.09,0.02,0.22,0.11,0.33,0.05
		C142.36,122.54,142.38,122.53,142.4,122.5z"/>
	<g>
		<path class="st32" d="M145.97,126.29l2.26-4.64c2.2-0.57,4.84,1.37,4.84,1.37c0.63,0.59,1.52-0.79,1.55-1.62
			c0.01-0.28-0.07-0.52-0.2-0.7c-0.2-0.29-0.48-0.5-0.76-0.67c-0.53-0.32-1.14-0.48-1.75-0.59c-0.85-0.15-1.72-0.22-2.62-0.21
			c-0.1,0-1.62,0.08-1.6,0.01c-0.29,0.82-0.6,1.64-0.94,2.45c-0.55,1.3-1.25,2.56-1.9,3.82c-0.47,0.92-0.93,1.83-1.4,2.74
			c-0.22,0.43-0.43,0.87-0.66,1.3c-0.25,0.45-0.5,0.88-0.7,1.36c-0.12,0.3-0.23,0.61-0.23,0.9c0,0.69,0.65,0.72,1.14,0.58
			c0.6-0.17,1.2-0.05,1.74,0.03c0.79,0.12,1.56,0.33,2.25,0.69c0.31,0.17,0.61,0.37,0.88,0.61c0,0,0.85,0.73,1.25-0.04
			c0.14-0.27,0.27-0.49,0.3-0.8c0.07-0.76-0.45-1.2-0.92-1.42c-0.41-0.19-0.82-0.37-1.23-0.54c-0.92-0.39-1.86-0.81-2.9-0.91
			c0,0-0.29-0.03-0.16-0.28c0,0,0.6-1.11,0.6-1.11c0.03-0.05,0.28-0.07,0.31-0.08c0.33-0.06,0.65-0.07,0.96-0.05
			c1.4,0.07,2.69,0.56,3.88,1.15c0.22,0.11,0.43,0.22,0.65,0.34c0.04,0.02,0.09,0.05,0.15,0.03c0.08-0.03,0.14-0.13,0.18-0.22
			c0.2-0.39,0.39-0.78,0.59-1.17c0.05-0.1,0.1-0.2,0.13-0.31c0.19-0.71-0.43-1.13-0.87-1.18
			C150.79,127.11,146.45,126.64,145.97,126.29z"/>
	</g>
	
		<ellipse transform="matrix(0.4534 -0.8913 0.8913 0.4534 -37.8764 209.073)" class="st32" cx="151.51" cy="135.42" rx="1.68" ry="0.96"/>
	<path class="st32" d="M160.1,121.14c-0.67-0.38-1.48-0.48-2.35-0.28c-0.51,0.12-1.03,0.34-1.5,0.75c-0.23,0.2-0.45,0.46-0.54,0.77
		c-0.08,0.27-0.05,0.53,0.04,0.73c0.12,0.28,0.33,0.48,0.61,0.52c0.3,0.04,0.63-0.1,0.95-0.2c0.48-0.14,0.97-0.19,1.39-0.07
		c1.29,0.35,1.71,2.66,0.79,4.34c0,0-1.18,1.81-3.77,2.16c0,0-2.26,0.25-2.8,1.78c-0.16,0.46-0.09,1.19,0.19,1.39
		c0.43,0.32,1.23-0.23,1.76-0.42c0.49-0.18,0.99-0.36,1.48-0.54c0.94-0.36,1.93-0.69,2.84-1.35c1.3-0.95,2.16-2.51,2.48-4.16
		c0.28-1.46,0.26-2.88-0.26-3.98C161.1,121.93,160.65,121.45,160.1,121.14z"/>
	
		<rect x="102.43" y="130.08" transform="matrix(0.8913 0.4534 -0.4534 0.8913 73.2836 -44.7788)" class="st33" width="55.24" height="0.79"/>
	
		<rect x="100.69" y="130.43" transform="matrix(0.8913 0.4534 -0.4534 0.8913 74.6514 -43.6166)" class="st34" width="55.24" height="6.96"/>
	<text transform="matrix(0.5177 0.2633 -0.4534 0.8913 116.5521 130.19)" class="st35 st36">SODA &amp; PIZZA CIUDAD COLÓN</text>
	<text transform="matrix(0.5177 0.2633 -0.4534 0.8913 116.4999 129.9695)" class="st30 st35 st36">SODA &amp; PIZZA CIUDAD COLÓN</text>
</g>
</svg>
