<?xml version="1.0" encoding="UTF-8"?>
<!DOCTYPE svg PUBLIC "-//W3C//DTD SVG 1.1//EN" "http://www.w3.org/Graphics/SVG/1.1/DTD/svg11.dtd">
<svg xmlns="http://www.w3.org/2000/svg" version="1.1" width="250px" height="250px" style="shape-rendering:geometricPrecision; text-rendering:geometricPrecision; image-rendering:optimizeQuality; fill-rule:evenodd; clip-rule:evenodd" xmlns:xlink="http://www.w3.org/1999/xlink">
<g><path style="opacity:0.881" fill="#fe9932" d="M 249.5,76.5 C 249.5,81.1667 249.5,85.8333 249.5,90.5C 248.05,94.1489 246.383,97.8155 244.5,101.5C 249.743,108.769 249.743,115.936 244.5,123C 247.938,126.747 248.271,130.747 245.5,135C 246.717,136.648 247.55,138.481 248,140.5C 248.667,146.167 248.667,151.833 248,157.5C 245.309,164.765 240.142,169.099 232.5,170.5C 234.619,186.425 228.286,197.592 213.5,204C 155.211,205.651 96.8781,205.984 38.5,205C 25.9701,201.137 18.3034,192.804 15.5,180C 16.2251,175.916 18.5584,174.582 22.5,176C 24.6065,186.239 30.6065,192.905 40.5,196C 96.1667,196.667 151.833,196.667 207.5,196C 220.985,192.323 226.651,183.49 224.5,169.5C 153.499,169.667 82.4992,169.5 11.5,169C 4.5888,165.94 0.588799,160.774 -0.5,153.5C -0.5,151.5 -0.5,149.5 -0.5,147.5C 1.82647,142.779 4.65981,142.446 8,146.5C 8.33333,149.5 8.66667,152.5 9,155.5C 9.83333,157.667 11.3333,159.167 13.5,160C 87.5,160.667 161.5,160.667 235.5,160C 239.319,157.36 240.985,153.693 240.5,149C 240.636,145.948 239.969,143.114 238.5,140.5C 235.164,141.951 231.664,142.617 228,142.5C 223.164,141.873 218.331,141.706 213.5,142C 203.919,156.3 192.419,158.134 179,147.5C 175.51,149.991 172.343,152.825 169.5,156C 164.734,158.31 159.734,158.977 154.5,158C 150.101,156.094 146.101,153.594 142.5,150.5C 130.546,162.494 118.546,162.494 106.5,150.5C 102.899,153.594 98.899,156.094 94.5,158C 85.093,159.869 77.7597,156.869 72.5,149C 71.6667,148.833 70.8333,148.667 70,148.5C 56.3319,158.102 44.8319,155.935 35.5,142C 28.1806,142.284 20.8473,142.284 13.5,142C 3.40104,139.295 0.0677032,133.129 3.5,123.5C 1.83603,120.518 0.502701,117.518 -0.5,114.5C -0.5,113.5 -0.5,112.5 -0.5,111.5C 0.587931,107.991 2.2546,104.657 4.5,101.5C 2.80295,98.1059 1.13628,94.7726 -0.5,91.5C -0.5,86.1667 -0.5,80.8333 -0.5,75.5C 3.34179,66.1401 9.34179,58.3068 17.5,52C 41.0744,35.1205 66.4078,31.9538 93.5,42.5C 113.847,34.224 134.014,34.5573 154,43.5C 188.14,30.1285 217.806,36.7952 243,63.5C 245.74,67.6467 247.907,71.98 249.5,76.5 Z M 59.5,45.5 C 66.9817,45.5184 74.315,46.5184 81.5,48.5C 75.1653,53.3369 69.332,58.6702 64,64.5C 61.4945,67.8194 60.4945,71.486 61,75.5C 63.3333,78.1667 65.6667,78.1667 68,75.5C 76.5537,61.1224 89.0537,51.9557 105.5,48C 118.264,44.5662 130.931,44.8995 143.5,49C 133.374,53.9538 126.708,61.7871 123.5,72.5C 124.964,76.8249 127.464,77.4916 131,74.5C 133.691,68.8035 137.525,63.9701 142.5,60C 167.993,42.539 194.326,41.2057 221.5,56C 228.667,60.5 234.5,66.3333 239,73.5C 244.071,91.5233 237.571,103.023 219.5,108C 155.833,108.667 92.1667,108.667 28.5,108C 15.9979,104.657 8.99786,96.4907 7.5,83.5C 7.85983,79.7272 8.69317,76.0605 10,72.5C 22.7505,56.5429 39.2505,47.5429 59.5,45.5 Z M 9.5,108.5 C 14.5924,112.38 20.2591,115.213 26.5,117C 42.1667,117.333 57.8333,117.667 73.5,118C 69.231,121.969 64.231,124.635 58.5,126C 46.416,128.243 34.416,127.909 22.5,125C 16.8652,123.353 12.3652,120.186 9,115.5C 8.4436,113.115 8.61027,110.782 9.5,108.5 Z M 237.5,108.5 C 241.335,111.694 241.335,115.194 237.5,119C 231.536,123.312 224.869,125.978 217.5,127C 201.829,129.867 187.496,126.867 174.5,118C 190.167,117.667 205.833,117.333 221.5,117C 227.902,115.968 233.235,113.135 237.5,108.5 Z M 92.5,118.5 C 113.663,117.337 134.996,117.171 156.5,118C 147.048,125.094 136.381,128.26 124.5,127.5C 112.684,128.216 102.017,125.216 92.5,118.5 Z M 205.5,137.5 C 203.532,142.333 199.865,145 194.5,145.5C 189.167,143.167 183.833,140.833 178.5,138.5C 173.211,140.28 168.877,143.446 165.5,148C 159.17,150.722 153.836,149.388 149.5,144C 141.815,139.986 135.482,141.653 130.5,149C 127.298,150.483 123.964,150.817 120.5,150C 117.19,148.018 114.19,145.685 111.5,143C 105.494,140.445 100.494,141.778 96.5,147C 92.3611,149.856 88.0277,150.19 83.5,148C 80.3262,143.817 76.3262,140.817 71.5,139C 66.6446,138.51 62.6446,140.177 59.5,144C 52.2277,146.295 46.561,144.128 42.5,137.5C 54.0827,137.345 65.0827,134.178 75.5,128C 78.7902,125.386 81.2902,122.219 83,118.5C 86.7152,125.881 92.5486,130.715 100.5,133C 119.75,139.741 138.417,138.408 156.5,129C 160.358,126.642 163.358,123.475 165.5,119.5C 169.591,125.891 175.258,130.391 182.5,133C 189.972,135.552 197.639,137.052 205.5,137.5 Z M 15.5,132.5 C 12.8166,132.773 11.3166,131.773 11,129.5C 12.6516,130.399 14.1516,131.399 15.5,132.5 Z M 236.5,129.5 C 238.379,129.393 238.712,129.893 237.5,131C 235.35,132.59 233.017,133.257 230.5,133C 232.727,132.059 234.727,130.892 236.5,129.5 Z"/></g>
</svg>
